# Blender v2.79 (sub 0) OBJ File: '4.blend'
# www.blender.org
mtllib basic_node-1_HC.mtl
o br4_basic_node-1_HC
v 0.000000 -0.03750000 -24.000000
v -1.000000 0.00000000 -32.000000
v -1.000000 -0.03750000 -24.000000
v -1.000000 0.000004 -24.000000
v -1.000000 0.000005 -32.000000
v -4.000000 0.000004 -24.000000
v -4.000000 0.000005 -32.000000
v -4.440000 -0.999996 -24.000000
v 1.000000 0.00000000 -32.000000
v 1.000000 -0.03750000 -24.000000
v 1.000000 0.000004 -24.000000
v 4.000000 0.000004 -24.000000
v 1.000000 0.000005 -32.000000
v 4.440000 -0.999996 -24.000000
v 4.000000 0.000005 -32.000000
v 4.440000 -1.000005 32.000000
v 4.000000 -0.000004 24.000000
v 4.000000 -0.000005 32.000000
v 4.440000 -1.000004 24.000000
v 4.000000 -0.000003 16.000000
v 4.440000 -1.000003 16.000000
v 4.000000 -0.000001 8.000000
v 4.440000 -1.000001 8.000000
v 4.000000 0.000000 0.000000
v 4.440000 -1.000000 -0.000000
v 4.000000 0.000001 -8.000000
v 4.440000 -0.999999 -8.000000
v 4.000000 0.000003 -16.000000
v 4.440000 -0.999997 -16.000000
v 1.000000 -0.000004 24.000000
v 1.000000 -0.000005 32.000000
v 1.000000 -0.000003 16.000000
v 1.000000 -0.000001 8.000000
v 1.000000 0.000000 0.000000
v 1.000000 0.000001 -8.000000
v 1.000000 0.000003 -16.000000
v 1.000000 -0.26250000 24.000000
v 1.000000 -0.30000000 32.000000
v 1.000000 -0.22500000 16.000000
v 1.000000 -0.18750000 8.000000
v 1.000000 -0.15000000 -0.000000
v 1.000000 -0.11250000 -8.000000
v 1.000000 -0.07500000 -16.000000
v 0.000000 -0.30000000 32.000000
v 0.000000 -0.26250000 24.000000
v 0.000000 -0.22500000 16.000000
v 0.000000 -0.18750000 8.000000
v 0.000000 -0.15000000 -0.000000
v 0.000000 -0.11250000 -8.000000
v 0.000000 -0.07500000 -16.000000
v -4.000000 -0.000004 24.000000
v -4.440000 -1.000005 32.000000
v -4.000000 -0.000005 32.000000
v -4.000000 -0.000003 16.000000
v -4.440000 -1.000004 24.000000
v -4.000000 -0.000001 8.000000
v -4.440000 -1.000003 16.000000
v -4.000000 0.000000 0.000000
v -4.440000 -1.000001 8.000000
v -4.000000 0.000001 -8.000000
v -4.440000 -1.000000 -0.000000
v -4.000000 0.000003 -16.000000
v -4.440000 -0.999999 -8.000000
v -4.440000 -0.999997 -16.000000
v -1.000000 -0.000004 24.000000
v -1.000000 -0.000005 32.000000
v -1.000000 -0.000003 16.000000
v -1.000000 -0.000001 8.000000
v -1.000000 0.000000 0.000000
v -1.000000 0.000001 -8.000000
v -1.000000 0.000003 -16.000000
v -1.000000 -0.26250000 24.000000
v -1.000000 -0.30000000 32.000000
v -1.000000 -0.22500000 16.000000
v -1.000000 -0.18750000 8.000000
v -1.000000 -0.15000000 -0.000000
v -1.000000 -0.11250000 -8.000000
v -1.000000 -0.07500000 -16.000000
v 0.000000 0.00000000 -32.000000
v -4.440000 -0.999995 -32.000000
v 4.440000 -0.999995 -32.000000
v -1.214286 0.000005 -32.000000
v 1.214286 0.000005 -32.000000
v 1.214286 -0.000005 32.000000
v -1.214286 -0.000005 32.000000
v -1.214286 -0.000004 24.000000
v -1.214286 -0.000003 16.000000
v -1.214286 -0.000001 8.000000
v -1.214286 0.000000 0.000000
v -1.214286 0.000001 -8.000000
v -1.214286 0.000003 -16.000000
v -1.214286 0.000004 -24.000000
v 1.214286 -0.000004 24.000000
v 1.214286 -0.000003 16.000000
v 1.214286 -0.000001 8.000000
v 1.214286 0.000000 0.000000
v 1.214286 0.000001 -8.000000
v 1.214286 0.000003 -16.000000
v 1.214286 0.000004 -24.000000
vt 0.527071 0.250000
vt 0.252097 0.375000
vt 0.252097 0.250000
vt 0.192604 0.143196
vt 0.206106 -0.213608
vt 0.206106 0.143196
vt 0.527070 0.875000
vt 0.801784 1.000000
vt 0.527070 1.000000
vt 0.192604 -0.927215
vt 0.206106 -0.570411
vt 0.192604 -0.570411
vt 0.053674 1.927215
vt 0.176365 1.570411
vt 0.176365 1.927215
vt 0.192604 0.856804
vt 0.206106 1.213608
vt 0.206106 0.856804
vt 0.527070 0.500000
vt 0.801785 0.625000
vt 0.527070 0.625000
vt 0.020438 0.375000
vt 0.004462 0.250000
vt 0.020438 0.250000
vt 0.192604 1.213608
vt 0.206106 1.570411
vt 0.192604 1.570411
vt 0.019470 0.625000
vt 0.003494 0.750000
vt 0.003494 0.625000
vt 0.192604 1.570411
vt 0.206106 1.927215
vt 0.206106 1.570411
vt 0.019470 0.375000
vt 0.003494 0.500000
vt 0.003494 0.375000
vt 0.192604 0.500000
vt 0.206106 0.500000
vt 0.192604 -0.927215
vt 0.206106 -0.570411
vt 0.206106 -0.927215
vt 0.527070 0.750000
vt 0.801784 0.875000
vt 0.176365 1.570411
vt 0.185803 1.927215
vt 0.176365 1.927215
vt 0.053674 -0.213608
vt 0.176365 -0.570411
vt 0.176365 -0.213608
vt 0.801785 0.750000
vt 0.176365 0.500000
vt 0.185803 0.856804
vt 0.176365 0.856804
vt 0.527071 0.125000
vt 0.801785 0.250000
vt 0.801785 0.375000
vt 0.527070 0.375000
vt 0.192604 -0.213608
vt 0.019470 0.750000
vt 0.003494 0.875000
vt 0.192604 -0.213608
vt 0.206106 0.143196
vt 0.206106 -0.213608
vt 0.206106 0.500000
vt 0.192604 0.500000
vt 0.019470 0.500000
vt 0.020438 1.000000
vt 0.004462 0.875000
vt 0.020438 0.875000
vt 0.206106 0.856804
vt 0.206106 1.213608
vt 0.252097 0.750000
vt 0.252097 0.625000
vt 0.053674 0.500000
vt 0.176365 0.143196
vt 0.176365 0.500000
vt 0.053674 -0.570411
vt 0.176365 -0.927215
vt 0.252096 0.875000
vt 0.252097 0.125000
vt 0.176365 1.213608
vt 0.185803 1.570411
vt 0.053674 1.570411
vt 0.176365 1.213608
vt 0.004462 0.750000
vt 0.020438 0.750000
vt 0.206106 1.927215
vt 0.192604 1.927215
vt 0.004462 0.625000
vt 0.020438 0.625000
vt 0.020438 0.500000
vt 0.004462 0.375000
vt 0.019470 0.250000
vt 0.003494 0.250000
vt 0.020438 0.125000
vt 0.004462 0.000000
vt 0.020438 0.000000
vt 0.192604 1.213608
vt 0.801785 0.500000
vt 0.527071 0.000000
vt 0.252097 0.000000
vt 0.176365 -0.570411
vt 0.185803 -0.213608
vt 0.176365 -0.213608
vt 0.176365 -0.927215
vt 0.185803 -0.570411
vt 0.004462 0.500000
vt 0.185803 0.143196
vt 0.176365 0.143196
vt 0.185803 1.213608
vt 0.019470 0.125000
vt 0.003494 0.125000
vt 0.004462 0.125000
vt 0.192604 -0.570411
vt 0.192604 0.143196
vt 0.192604 0.856804
vt 0.019470 0.000000
vt 0.003494 0.000000
vt 0.019470 0.875000
vt 0.003494 1.000000
vt 0.801785 0.125000
vt 0.252097 0.500000
vt 0.053674 1.213608
vt 0.176365 0.856804
vt 0.053674 0.143196
vt 0.053674 0.856804
vt 0.252096 1.000000
vt 0.185803 0.500000
vt 0.185803 1.213608
vt 0.185803 1.570411
vt 0.185803 0.856804
vt 0.185803 0.500000
vt 0.185803 0.143196
vt 0.185803 -0.213608
vt 0.185803 -0.570411
vt 0.185803 -0.927215
vt 0.185803 1.927215
vt 0.053674 -0.570411
vt 0.053674 -0.213608
vt 0.053674 0.143196
vt 0.053674 0.500000
vt 0.053674 0.856804
vt 0.053674 1.213608
vt 0.053674 1.570411
vt 0.053674 1.927215
vt 0.053674 -0.927215
vt 0.206106 -0.927215
vt 0.192604 1.927215
vt 0.004462 1.000000
vt 0.053674 -0.927215
vt 0.185803 -0.927215
vt 0.019470 1.000000
vt 0.801785 0.000000
vn 0.0000 1.0000 0.0000
vn -1.0000 0.0000 0.0000
vn 1.0000 0.0000 0.0000
vn 0.9146 0.4039 0.0192
vn 0.9093 0.4160 0.0127
vn 0.9097 0.4151 -0.0136
vn -0.9093 0.4160 0.0127
vn -0.9146 0.4039 0.0192
vn -0.9097 0.4151 -0.0136
vn 0.9141 0.4051 0.0191
vn 0.9200 0.3916 -0.0150
vn 0.9085 0.4177 0.0100
vn 0.9074 0.4202 -0.0017
vn 0.9074 0.4203 0.0000
vn -0.9074 0.4203 0.0000
vn -0.9083 0.4183 0.0089
vn 0.9079 0.4191 0.0069
vn 0.9092 0.4161 -0.0124
vn 0.9083 0.4183 0.0089
vn -0.9141 0.4051 0.0191
vn -0.9074 0.4202 -0.0017
usemtl None
s off
f 50/1/1 42/2/1 43/3/1
f 35/4/2 43/5/2 42/6/2
f 45/7/1 73/8/1 44/9/1
f 13/10/2 10/11/2 11/12/2
f 7/13/1 92/14/1 82/15/1
f 68/16/3 74/17/3 75/18/3
f 48/19/1 75/20/1 47/21/1
f 23/22/4 20/23/5 21/24/6
f 32/25/2 37/26/2 30/27/2
f 59/28/7 54/29/8 56/30/9
f 65/31/3 73/32/3 72/33/3
f 63/34/7 58/35/8 60/36/9
f 69/37/3 75/18/3 76/38/3
f 5/39/3 3/40/3 2/41/3
f 46/42/1 72/43/1 45/7/1
f 93/44/1 31/45/1 84/46/1
f 54/47/1 86/48/1 87/49/1
f 47/21/1 74/50/1 46/42/1
f 96/51/1 33/52/1 95/53/1
f 1/54/1 78/55/1 50/1/1
f 50/1/1 77/56/1 49/57/1
f 11/12/2 43/5/2 36/58/2
f 57/59/7 51/60/8 54/29/9
f 71/61/3 77/62/3 78/63/3
f 35/4/2 41/64/2 34/65/2
f 61/66/7 56/30/8 58/35/9
f 81/67/10 12/68/5 14/69/11
f 32/25/2 40/70/2 39/71/2
f 47/21/1 39/72/1 40/73/1
f 58/74/1 88/75/1 89/76/1
f 51/77/1 85/78/1 86/48/1
f 46/42/1 37/79/1 39/72/1
f 1/54/1 43/3/1 10/80/1
f 94/81/1 30/82/1 93/44/1
f 6/83/1 91/84/1 92/14/1
f 14/69/12 28/85/5 29/86/6
f 30/27/2 38/87/2 31/88/2
f 29/86/4 26/89/5 27/90/6
f 25/91/4 22/92/5 23/22/6
f 64/93/7 60/36/8 62/94/9
f 19/95/4 18/96/13 16/97/14
f 67/98/3 72/33/3 74/17/3
f 49/57/1 76/99/1 48/19/1
f 79/100/1 10/80/1 9/101/1
f 99/102/1 36/103/1 98/104/1
f 83/105/1 11/106/1 99/102/1
f 27/90/4 24/107/5 25/91/6
f 98/104/1 35/108/1 97/109/1
f 95/53/1 32/110/1 94/81/1
f 8/111/7 62/94/8 6/112/9
f 21/24/4 17/113/5 19/95/6
f 4/114/3 78/63/3 3/40/3
f 70/115/3 76/38/3 77/62/3
f 34/65/2 40/70/2 33/116/2
f 80/117/15 6/112/8 7/118/15
f 55/119/7 53/120/16 51/60/9
f 79/100/1 3/121/1 1/54/1
f 48/19/1 40/73/1 41/122/1
f 49/57/1 41/122/1 42/2/1
f 62/123/1 90/124/1 91/84/1
f 56/125/1 87/49/1 88/75/1
f 60/126/1 89/76/1 90/124/1
f 45/7/1 38/127/1 37/79/1
f 97/109/1 34/128/1 96/51/1
f 92/14/1 71/129/1 4/130/1
f 91/84/1 70/131/1 71/129/1
f 90/124/1 69/132/1 70/131/1
f 89/76/1 68/133/1 69/132/1
f 88/75/1 67/134/1 68/133/1
f 87/49/1 65/135/1 67/134/1
f 86/48/1 66/136/1 65/135/1
f 82/15/1 4/130/1 5/137/1
f 12/138/1 98/104/1 28/139/1
f 28/139/1 97/109/1 26/140/1
f 26/140/1 96/51/1 24/141/1
f 24/141/1 95/53/1 22/142/1
f 22/142/1 94/81/1 20/143/1
f 20/143/1 93/44/1 17/144/1
f 17/144/1 84/46/1 18/145/1
f 15/146/1 99/102/1 12/138/1
f 50/1/1 49/57/1 42/2/1
f 35/4/2 36/58/2 43/5/2
f 45/7/1 72/43/1 73/8/1
f 13/10/2 9/147/2 10/11/2
f 7/13/1 6/83/1 92/14/1
f 68/16/3 67/98/3 74/17/3
f 48/19/1 76/99/1 75/20/1
f 23/22/5 22/92/6 20/23/4
f 32/25/2 39/71/2 37/26/2
f 59/28/8 57/59/9 54/29/7
f 65/31/3 66/148/3 73/32/3
f 63/34/8 61/66/9 58/35/7
f 69/37/3 68/16/3 75/18/3
f 5/39/3 4/114/3 3/40/3
f 46/42/1 74/50/1 72/43/1
f 93/44/1 30/82/1 31/45/1
f 54/47/1 51/77/1 86/48/1
f 47/21/1 75/20/1 74/50/1
f 96/51/1 34/128/1 33/52/1
f 1/54/1 3/121/1 78/55/1
f 50/1/1 78/55/1 77/56/1
f 11/12/2 10/11/2 43/5/2
f 57/59/8 55/119/9 51/60/7
f 71/61/3 70/115/3 77/62/3
f 35/4/2 42/6/2 41/64/2
f 61/66/8 59/28/9 56/30/7
f 81/67/14 15/149/17 12/68/4
f 32/25/2 33/116/2 40/70/2
f 47/21/1 46/42/1 39/72/1
f 58/74/1 56/125/1 88/75/1
f 51/77/1 53/150/1 85/78/1
f 46/42/1 45/7/1 37/79/1
f 1/54/1 50/1/1 43/3/1
f 94/81/1 32/110/1 30/82/1
f 6/83/1 62/123/1 91/84/1
f 14/69/18 12/68/6 28/85/4
f 30/27/2 37/26/2 38/87/2
f 29/86/5 28/85/6 26/89/4
f 25/91/5 24/107/6 22/92/4
f 64/93/8 63/34/9 60/36/7
f 19/95/5 17/113/6 18/96/19
f 67/98/3 65/31/3 72/33/3
f 49/57/1 77/56/1 76/99/1
f 79/100/1 1/54/1 10/80/1
f 99/102/1 11/106/1 36/103/1
f 83/105/1 13/151/1 11/106/1
f 27/90/5 26/89/6 24/107/4
f 98/104/1 36/103/1 35/108/1
f 95/53/1 33/52/1 32/110/1
f 8/111/8 64/93/9 62/94/7
f 21/24/5 20/23/6 17/113/4
f 4/114/3 71/61/3 78/63/3
f 70/115/3 69/37/3 76/38/3
f 34/65/2 41/64/2 40/70/2
f 80/117/20 8/111/9 6/112/7
f 55/119/8 52/152/15 53/120/21
f 79/100/1 2/153/1 3/121/1
f 48/19/1 47/21/1 40/73/1
f 49/57/1 48/19/1 41/122/1
f 62/123/1 60/126/1 90/124/1
f 56/125/1 54/47/1 87/49/1
f 60/126/1 58/74/1 89/76/1
f 45/7/1 44/9/1 38/127/1
f 97/109/1 35/108/1 34/128/1
f 92/14/1 91/84/1 71/129/1
f 91/84/1 90/124/1 70/131/1
f 90/124/1 89/76/1 69/132/1
f 89/76/1 88/75/1 68/133/1
f 88/75/1 87/49/1 67/134/1
f 87/49/1 86/48/1 65/135/1
f 86/48/1 85/78/1 66/136/1
f 82/15/1 92/14/1 4/130/1
f 12/138/1 99/102/1 98/104/1
f 28/139/1 98/104/1 97/109/1
f 26/140/1 97/109/1 96/51/1
f 24/141/1 96/51/1 95/53/1
f 22/142/1 95/53/1 94/81/1
f 20/143/1 94/81/1 93/44/1
f 17/144/1 93/44/1 84/46/1
f 15/146/1 83/105/1 99/102/1
