v -4.00000000 0.00999500 32.00000000 
v -4.00000000 0.00999500 -32.00000000
v -0.00082300 0.00999500 32.00000000 
v -0.00082300 0.00999500 -32.00000000
v 4.00000000 0.00999500 32.00000000  
v 4.00000000 0.00999500 -32.00000000 
v -4.00000000 0.00999500 -16.00000000
v -4.00000000 0.00999500 0.00000000  
v -4.00000000 0.00999500 16.00000000 
v -0.00082300 0.00999500 16.00000000 
v -0.00082300 0.00999500 0.00000000  
v -0.00082300 0.00999500 -16.00000000
v 4.00000000 0.00999500 -16.00000000 
v 4.00000000 0.00999500 0.00000000   
v 4.00000000 0.00999500 16.00000000  
vn -0.0000 1.0000 -0.0000            
vt 0.011202 0.989366                 
vt 0.011202 0.010634                 
vt 0.332137 0.010634                 
vt 0.331984 0.989366                 
vt 0.332136 0.989366                 
vt 0.331984 0.010634                 
vt 0.011202 0.010634                 
vt 0.011202 0.989366                 
vt 0.011202 0.255317                 
vt 0.011202 0.500000                 
vt 0.011202 0.744683                 
vt 0.332137 0.255317                 
vt 0.331984 0.744683                 
vt 0.332136 0.500000                 
vt 0.331984 0.500000                 
vt 0.332136 0.744683                 
vt 0.331984 0.255317                 
vt 0.011202 0.744683                 
vt 0.011202 0.500000                 
vt 0.011202 0.255317                 
g br4_basic_node-3_LCF               
f 1/1/1 10/13/1 9/11/1               
f 13/18/1 4/5/1 12/16/1              
f 5/7/1 10/12/1 3/3/1                
f 15/20/1 11/14/1 10/12/1            
f 14/19/1 12/16/1 11/14/1            
f 7/9/1 4/6/1 2/2/1                  
f 8/10/1 12/17/1 7/9/1               
f 9/11/1 11/15/1 8/10/1              
f 1/1/1 3/4/1 10/13/1                
f 13/18/1 6/8/1 4/5/1                
f 5/7/1 15/20/1 10/12/1              
f 15/20/1 14/19/1 11/14/1            
f 14/19/1 13/18/1 12/16/1            
f 7/9/1 12/17/1 4/6/1                
f 8/10/1 11/15/1 12/17/1             
f 9/11/1 10/13/1 11/15/1             


