# Blender v2.79 (sub 0) OBJ File: '2.blend'
# www.blender.org
mtllib Marking_lod.mtl
o marking_[n]_lod_default_0.001
v -0.500000 0.065000 32.000000
v 0.500000 0.065000 32.000000
v -0.500000 0.065000 16.000000
v 0.500000 0.065000 -32.000000
v 0.500000 0.065000 16.000000
v 0.500000 0.065000 -16.000000
v -0.500000 0.065000 -32.000000
v -0.500000 0.065000 -16.000000
v 0.500000 0.065000 0.000000
v -0.500000 0.065000 0.000000
vt 0.000053 1.001419
vt 0.999947 -0.001604
vt 0.999947 1.001419
vt 0.000053 1.001419
vt 0.999947 -0.001604
vt 0.999947 1.001419
vt 0.000053 1.001419
vt 0.999947 -0.001604
vt 0.999947 1.001419
vt 0.000053 1.001419
vt 0.999947 -0.001604
vt 0.999947 1.001419
vt 0.000053 -0.001605
vt 0.000053 -0.001605
vt 0.000053 -0.001605
vt 0.000053 -0.001605
vn 0.0000 1.0000 0.0000
usemtl None
s off
f 1/1/1 5/2/1 3/3/1
f 8/4/1 4/5/1 7/6/1
f 10/7/1 6/8/1 8/9/1
f 3/10/1 9/11/1 10/12/1
f 1/1/1 2/13/1 5/2/1
f 8/4/1 6/14/1 4/5/1
f 10/7/1 9/15/1 6/8/1
f 3/10/1 5/16/1 9/11/1
