# Blender v2.79 (sub 0) OBJ File: '1.blend'
# www.blender.org
mtllib Platform.mtl
o 02._bs_pltfrm_[wdth._1m_-_grss]_Plane.078
v -0.350000 0.000000 -32.000000
v -0.350000 0.000000 32.000000
v -0.500000 0.000000 32.000000
v -0.500000 0.000000 -32.000000
v -0.350000 0.000000 -28.444445
v -0.350000 0.000000 -24.888889
v -0.350000 0.000000 -21.333334
v -0.350000 0.000000 -17.777779
v -0.350000 0.000000 -14.222223
v -0.350000 0.000000 -10.666668
v -0.350000 0.000000 -7.111112
v -0.350000 0.000000 -3.555557
v -0.350000 0.000000 -0.000001
v -0.350000 0.000000 3.555555
v -0.350000 0.000000 7.111111
v -0.350000 0.000000 10.666666
v -0.350000 0.000000 14.222221
v -0.350000 0.000000 17.777777
v -0.350000 0.000000 21.333332
v -0.350000 0.000000 24.888887
v -0.350000 0.000000 28.444443
v -0.500000 0.000000 28.444445
v -0.500000 0.000000 24.888889
v -0.500000 0.000000 21.333334
v -0.500000 0.000000 17.777779
v -0.500000 0.000000 14.222223
v -0.500000 0.000000 10.666668
v -0.500000 0.000000 7.111112
v -0.500000 0.000000 3.555557
v -0.500000 0.000000 0.000001
v -0.500000 0.000000 -3.555555
v -0.500000 0.000000 -7.111111
v -0.500000 0.000000 -10.666666
v -0.500000 0.000000 -14.222221
v -0.500000 0.000000 -17.777777
v -0.500000 0.000000 -21.333332
v -0.500000 0.000000 -24.888887
v -0.500000 0.000000 -28.444443
v 0.350000 0.000000 -32.000000
v 0.350000 0.000000 32.000000
v 0.500000 0.000000 32.000000
v 0.500000 0.000000 -32.000000
v 0.350000 0.000000 -28.444445
v 0.350000 0.000000 -24.888889
v 0.350000 0.000000 -21.333334
v 0.350000 0.000000 -17.777779
v 0.350000 0.000000 -14.222223
v 0.350000 0.000000 -10.666668
v 0.350000 0.000000 -7.111112
v 0.350000 0.000000 -3.555557
v 0.350000 0.000000 -0.000001
v 0.350000 0.000000 3.555555
v 0.350000 0.000000 7.111111
v 0.350000 0.000000 10.666666
v 0.350000 0.000000 14.222221
v 0.350000 0.000000 17.777777
v 0.350000 0.000000 21.333332
v 0.350000 0.000000 24.888887
v 0.350000 0.000000 28.444443
v 0.500000 0.000000 28.444445
v 0.500000 0.000000 24.888889
v 0.500000 0.000000 21.333334
v 0.500000 0.000000 17.777779
v 0.500000 0.000000 14.222223
v 0.500000 0.000000 10.666668
v 0.500000 0.000000 7.111112
v 0.500000 0.000000 3.555557
v 0.500000 0.000000 0.000001
v 0.500000 0.000000 -3.555555
v 0.500000 0.000000 -7.111111
v 0.500000 0.000000 -10.666666
v 0.500000 0.000000 -14.222221
v 0.500000 0.000000 -17.777777
v 0.500000 0.000000 -21.333332
v 0.500000 0.000000 -24.888887
v 0.500000 0.000000 -28.444443
v -0.500000 -0.300000 32.000000
v -0.500000 -0.300000 -32.000000
v -0.500000 -0.300000 28.444445
v -0.500000 -0.300000 24.888889
v -0.500000 -0.300000 21.333334
v -0.500000 -0.300000 17.777779
v -0.500000 -0.300000 14.222223
v -0.500000 -0.300000 10.666668
v -0.500000 -0.300000 7.111112
v -0.500000 -0.300000 3.555557
v -0.500000 -0.300000 0.000001
v -0.500000 -0.300000 -3.555555
v -0.500000 -0.300000 -7.111111
v -0.500000 -0.300000 -10.666666
v -0.500000 -0.300000 -14.222221
v -0.500000 -0.300000 -17.777777
v -0.500000 -0.300000 -21.333332
v -0.500000 -0.300000 -24.888887
v -0.500000 -0.300000 -28.444443
v 0.500000 -0.300000 32.000000
v 0.500000 -0.300000 -32.000000
v 0.500000 -0.300000 28.444445
v 0.500000 -0.300000 24.888889
v 0.500000 -0.300000 21.333334
v 0.500000 -0.300000 17.777779
v 0.500000 -0.300000 14.222223
v 0.500000 -0.300000 10.666668
v 0.500000 -0.300000 7.111112
v 0.500000 -0.300000 3.555557
v 0.500000 -0.300000 0.000001
v 0.500000 -0.300000 -3.555555
v 0.500000 -0.300000 -7.111111
v 0.500000 -0.300000 -10.666666
v 0.500000 -0.300000 -14.222221
v 0.500000 -0.300000 -17.777777
v 0.500000 -0.300000 -21.333332
v 0.500000 -0.300000 -24.888887
v 0.500000 -0.300000 -28.444443
vt -0.000116 0.055556
vt 0.238464 0.000000
vt 0.238464 0.055556
vt -0.000116 1.000000
vt 0.238463 0.944444
vt 0.238463 1.000000
vt -0.000116 0.944444
vt 0.238463 0.888889
vt -0.000116 0.888889
vt 0.238463 0.833333
vt -0.000116 0.833333
vt 0.238463 0.777778
vt -0.000116 0.777778
vt 0.238463 0.722222
vt -0.000116 0.722222
vt 0.238463 0.666667
vt -0.000116 0.666667
vt 0.238464 0.611111
vt -0.000116 0.611111
vt 0.238464 0.555556
vt -0.000116 0.555556
vt 0.238464 0.500000
vt -0.000116 0.500000
vt 0.238464 0.444444
vt -0.000116 0.444444
vt 0.238464 0.388889
vt -0.000116 0.388889
vt 0.238464 0.333333
vt -0.000116 0.333333
vt 0.238464 0.277778
vt -0.000116 0.277778
vt 0.238464 0.222222
vt -0.000116 0.222222
vt 0.238464 0.166667
vt -0.000116 0.166667
vt 0.238464 0.111111
vt -0.000116 0.111111
vt -0.000116 0.055556
vt 0.238464 0.000000
vt -0.000116 0.000000
vt -0.000116 1.000000
vt 0.238463 0.944444
vt -0.000116 0.944444
vt 0.238463 0.888889
vt -0.000116 0.888889
vt 0.238463 0.833333
vt -0.000116 0.833333
vt 0.238463 0.777778
vt -0.000116 0.777778
vt 0.238463 0.722222
vt -0.000116 0.722222
vt 0.238463 0.666667
vt -0.000116 0.666667
vt 0.238464 0.611111
vt -0.000116 0.611111
vt 0.238464 0.555556
vt -0.000116 0.555556
vt 0.238464 0.500000
vt -0.000116 0.500000
vt 0.238464 0.444444
vt -0.000116 0.444444
vt 0.238464 0.388889
vt -0.000116 0.388889
vt 0.238464 0.333333
vt -0.000116 0.333333
vt 0.238464 0.277778
vt -0.000116 0.277778
vt 0.238464 0.222222
vt -0.000116 0.222222
vt 0.238464 0.166667
vt -0.000116 0.166667
vt 0.238464 0.111111
vt -0.000116 0.111111
vt 0.238464 0.055556
vt 0.649730 1.000000
vt 0.991903 0.944444
vt 0.991903 1.000000
vt 0.649729 0.944444
vt 0.991903 0.888888
vt 0.649729 0.888888
vt 0.991902 0.833333
vt 0.649729 0.833333
vt 0.991902 0.777777
vt 0.649729 0.777777
vt 0.991902 0.722222
vt 0.649729 0.722222
vt 0.991902 0.666666
vt 0.649729 0.666666
vt 0.991902 0.611111
vt 0.649729 0.611111
vt 0.991902 0.555555
vt 0.649728 0.555555
vt 0.991901 0.500000
vt 0.649728 0.500000
vt 0.991901 0.444444
vt 0.649728 0.444444
vt 0.991901 0.388888
vt 0.649728 0.388888
vt 0.991901 0.333333
vt 0.649728 0.333333
vt 0.991901 0.277777
vt 0.649728 0.277777
vt 0.991901 0.222222
vt 0.649727 0.222222
vt 0.991901 0.166666
vt 0.649727 0.166666
vt 0.991900 0.111111
vt 0.649727 0.111111
vt 0.991900 0.055555
vt 0.649727 0.055555
vt 0.991900 -0.000000
vt 0.000000 1.000000
vt 0.238474 0.944444
vt 0.000000 0.944444
vt 0.000001 0.055556
vt 0.238464 0.000000
vt 0.000001 0.000000
vt 0.000001 0.111111
vt 0.238464 0.055556
vt 0.000001 0.166667
vt 0.238465 0.111111
vt 0.000001 0.222222
vt 0.238466 0.166667
vt 0.000001 0.277778
vt 0.238466 0.222222
vt 0.000001 0.333333
vt 0.238467 0.277778
vt 0.000001 0.388889
vt 0.238467 0.333333
vt 0.000000 0.444444
vt 0.238468 0.388889
vt 0.000000 0.500000
vt 0.238469 0.444444
vt 0.000000 0.555555
vt 0.238469 0.500000
vt 0.000000 0.611111
vt 0.238470 0.555555
vt 0.000000 0.666666
vt 0.238470 0.611111
vt 0.000000 0.722222
vt 0.238471 0.666666
vt 0.000000 0.777777
vt 0.238472 0.722222
vt 0.000000 0.833333
vt 0.238472 0.777777
vt 0.000000 0.888888
vt 0.238473 0.833333
vt 0.238473 0.888888
vt 0.238474 0.944444
vt 0.000000 1.000000
vt 0.000000 0.944444
vt 0.238464 0.000000
vt 0.000001 0.055556
vt 0.000001 0.000000
vt 0.238464 0.055556
vt 0.000001 0.111111
vt 0.238465 0.111111
vt 0.000001 0.166667
vt 0.238466 0.166667
vt 0.000001 0.222222
vt 0.238466 0.222222
vt 0.000001 0.277778
vt 0.238467 0.277778
vt 0.000001 0.333333
vt 0.238467 0.333333
vt 0.000001 0.388889
vt 0.238468 0.388889
vt 0.000000 0.444444
vt 0.238469 0.444444
vt 0.000000 0.500000
vt 0.238469 0.500000
vt 0.000000 0.555555
vt 0.238470 0.555555
vt 0.000000 0.611111
vt 0.238470 0.611111
vt 0.000000 0.666666
vt 0.238471 0.666666
vt 0.000000 0.722222
vt 0.238472 0.722222
vt 0.000000 0.777777
vt 0.238472 0.777777
vt 0.000000 0.833333
vt 0.238473 0.833333
vt 0.000000 0.888888
vt 0.238473 0.888888
vt 0.238474 0.856411
vt 0.238474 0.844834
vt 0.000000 0.844834
vt 0.000000 0.844834
vt 0.238474 0.856411
vt 0.238475 0.910434
vt -0.000116 0.000000
vt 0.238463 1.000000
vt 0.649727 -0.000000
vt 0.238475 1.000000
vt 0.238475 1.000000
vt 0.000000 0.922011
vt 0.238475 0.910434
vt 0.238475 0.922011
vt 0.238475 0.922011
vt 0.000000 0.922011
vt 0.238474 0.844834
vn 0.0000 1.0000 -0.0000
vn -1.0000 0.0000 0.0000
vn 1.0000 0.0000 0.0000
vn 0.0000 0.0000 1.0000
vn 0.0000 0.0000 -1.0000
usemtl None
g default
s off
f 22/1/1 2/2/1 21/3/1
f 4/4/1 5/5/1 1/6/1
f 38/7/1 6/8/1 5/5/1
f 37/9/1 7/10/1 6/8/1
f 36/11/1 8/12/1 7/10/1
f 35/13/1 9/14/1 8/12/1
f 34/15/1 10/16/1 9/14/1
f 33/17/1 11/18/1 10/16/1
f 32/19/1 12/20/1 11/18/1
f 31/21/1 13/22/1 12/20/1
f 30/23/1 14/24/1 13/22/1
f 29/25/1 15/26/1 14/24/1
f 28/27/1 16/28/1 15/26/1
f 27/29/1 17/30/1 16/28/1
f 26/31/1 18/32/1 17/30/1
f 25/33/1 19/34/1 18/32/1
f 24/35/1 20/36/1 19/34/1
f 23/37/1 21/3/1 20/36/1
f 60/38/1 40/39/1 41/40/1
f 42/41/1 43/42/1 76/43/1
f 76/43/1 44/44/1 75/45/1
f 75/45/1 45/46/1 74/47/1
f 74/47/1 46/48/1 73/49/1
f 73/49/1 47/50/1 72/51/1
f 72/51/1 48/52/1 71/53/1
f 71/53/1 49/54/1 70/55/1
f 70/55/1 50/56/1 69/57/1
f 69/57/1 51/58/1 68/59/1
f 68/59/1 52/60/1 67/61/1
f 67/61/1 53/62/1 66/63/1
f 66/63/1 54/64/1 65/65/1
f 65/65/1 55/66/1 64/67/1
f 64/67/1 56/68/1 63/69/1
f 63/69/1 57/70/1 62/71/1
f 62/71/1 58/72/1 61/73/1
f 61/73/1 59/74/1 60/38/1
f 40/75/1 21/76/1 2/77/1
f 59/78/1 20/79/1 21/76/1
f 58/80/1 19/81/1 20/79/1
f 57/82/1 18/83/1 19/81/1
f 56/84/1 17/85/1 18/83/1
f 55/86/1 16/87/1 17/85/1
f 54/88/1 15/89/1 16/87/1
f 53/90/1 14/91/1 15/89/1
f 52/92/1 13/93/1 14/91/1
f 51/94/1 12/95/1 13/93/1
f 50/96/1 11/97/1 12/95/1
f 49/98/1 10/99/1 11/97/1
f 48/100/1 9/101/1 10/99/1
f 47/102/1 8/103/1 9/101/1
f 46/104/1 7/105/1 8/103/1
f 45/106/1 6/107/1 7/105/1
f 44/108/1 5/109/1 6/107/1
f 43/110/1 1/111/1 5/109/1
f 77/112/2 22/113/2 79/114/2
f 95/115/2 4/116/2 78/117/2
f 94/118/2 38/119/2 95/115/2
f 93/120/2 37/121/2 94/118/2
f 92/122/2 36/123/2 93/120/2
f 91/124/2 35/125/2 92/122/2
f 90/126/2 34/127/2 91/124/2
f 89/128/2 33/129/2 90/126/2
f 88/130/2 32/131/2 89/128/2
f 87/132/2 31/133/2 88/130/2
f 86/134/2 30/135/2 87/132/2
f 85/136/2 29/137/2 86/134/2
f 84/138/2 28/139/2 85/136/2
f 83/140/2 27/141/2 84/138/2
f 82/142/2 26/143/2 83/140/2
f 81/144/2 25/145/2 82/142/2
f 80/146/2 24/147/2 81/144/2
f 79/114/2 23/148/2 80/146/2
f 60/149/3 96/150/3 98/151/3
f 42/152/3 114/153/3 97/154/3
f 76/155/3 113/156/3 114/153/3
f 75/157/3 112/158/3 113/156/3
f 74/159/3 111/160/3 112/158/3
f 73/161/3 110/162/3 111/160/3
f 72/163/3 109/164/3 110/162/3
f 71/165/3 108/166/3 109/164/3
f 70/167/3 107/168/3 108/166/3
f 69/169/3 106/170/3 107/168/3
f 68/171/3 105/172/3 106/170/3
f 67/173/3 104/174/3 105/172/3
f 66/175/3 103/176/3 104/174/3
f 65/177/3 102/178/3 103/176/3
f 64/179/3 101/180/3 102/178/3
f 63/181/3 100/182/3 101/180/3
f 62/183/3 99/184/3 100/182/3
f 61/185/3 98/151/3 99/184/3
f 2/186/4 3/187/4 77/188/4
f 78/189/5 1/190/5 39/191/5
f 22/1/1 3/192/1 2/2/1
f 4/4/1 38/7/1 5/5/1
f 38/7/1 37/9/1 6/8/1
f 37/9/1 36/11/1 7/10/1
f 36/11/1 35/13/1 8/12/1
f 35/13/1 34/15/1 9/14/1
f 34/15/1 33/17/1 10/16/1
f 33/17/1 32/19/1 11/18/1
f 32/19/1 31/21/1 12/20/1
f 31/21/1 30/23/1 13/22/1
f 30/23/1 29/25/1 14/24/1
f 29/25/1 28/27/1 15/26/1
f 28/27/1 27/29/1 16/28/1
f 27/29/1 26/31/1 17/30/1
f 26/31/1 25/33/1 18/32/1
f 25/33/1 24/35/1 19/34/1
f 24/35/1 23/37/1 20/36/1
f 23/37/1 22/1/1 21/3/1
f 60/38/1 59/74/1 40/39/1
f 42/41/1 39/193/1 43/42/1
f 76/43/1 43/42/1 44/44/1
f 75/45/1 44/44/1 45/46/1
f 74/47/1 45/46/1 46/48/1
f 73/49/1 46/48/1 47/50/1
f 72/51/1 47/50/1 48/52/1
f 71/53/1 48/52/1 49/54/1
f 70/55/1 49/54/1 50/56/1
f 69/57/1 50/56/1 51/58/1
f 68/59/1 51/58/1 52/60/1
f 67/61/1 52/60/1 53/62/1
f 66/63/1 53/62/1 54/64/1
f 65/65/1 54/64/1 55/66/1
f 64/67/1 55/66/1 56/68/1
f 63/69/1 56/68/1 57/70/1
f 62/71/1 57/70/1 58/72/1
f 61/73/1 58/72/1 59/74/1
f 40/75/1 59/78/1 21/76/1
f 59/78/1 58/80/1 20/79/1
f 58/80/1 57/82/1 19/81/1
f 57/82/1 56/84/1 18/83/1
f 56/84/1 55/86/1 17/85/1
f 55/86/1 54/88/1 16/87/1
f 54/88/1 53/90/1 15/89/1
f 53/90/1 52/92/1 14/91/1
f 52/92/1 51/94/1 13/93/1
f 51/94/1 50/96/1 12/95/1
f 50/96/1 49/98/1 11/97/1
f 49/98/1 48/100/1 10/99/1
f 48/100/1 47/102/1 9/101/1
f 47/102/1 46/104/1 8/103/1
f 46/104/1 45/106/1 7/105/1
f 45/106/1 44/108/1 6/107/1
f 44/108/1 43/110/1 5/109/1
f 43/110/1 39/194/1 1/111/1
f 77/112/2 3/195/2 22/113/2
f 95/115/2 38/119/2 4/116/2
f 94/118/2 37/121/2 38/119/2
f 93/120/2 36/123/2 37/121/2
f 92/122/2 35/125/2 36/123/2
f 91/124/2 34/127/2 35/125/2
f 90/126/2 33/129/2 34/127/2
f 89/128/2 32/131/2 33/129/2
f 88/130/2 31/133/2 32/131/2
f 87/132/2 30/135/2 31/133/2
f 86/134/2 29/137/2 30/135/2
f 85/136/2 28/139/2 29/137/2
f 84/138/2 27/141/2 28/139/2
f 83/140/2 26/143/2 27/141/2
f 82/142/2 25/145/2 26/143/2
f 81/144/2 24/147/2 25/145/2
f 80/146/2 23/148/2 24/147/2
f 79/114/2 22/113/2 23/148/2
f 60/149/3 41/196/3 96/150/3
f 42/152/3 76/155/3 114/153/3
f 76/155/3 75/157/3 113/156/3
f 75/157/3 74/159/3 112/158/3
f 74/159/3 73/161/3 111/160/3
f 73/161/3 72/163/3 110/162/3
f 72/163/3 71/165/3 109/164/3
f 71/165/3 70/167/3 108/166/3
f 70/167/3 69/169/3 107/168/3
f 69/169/3 68/171/3 106/170/3
f 68/171/3 67/173/3 105/172/3
f 67/173/3 66/175/3 104/174/3
f 66/175/3 65/177/3 103/176/3
f 65/177/3 64/179/3 102/178/3
f 64/179/3 63/181/3 101/180/3
f 63/181/3 62/183/3 100/182/3
f 62/183/3 61/185/3 99/184/3
f 61/185/3 60/149/3 98/151/3
f 77/188/4 96/197/4 40/198/4
f 40/198/4 2/186/4 77/188/4
f 96/197/4 41/199/4 40/198/4
f 42/200/5 97/201/5 39/191/5
f 78/189/5 4/202/5 1/190/5
f 39/191/5 97/201/5 78/189/5
