# File exported by Unity3D version 5.6.7f1
v 0.00143457 1.00070500 32.00007000
v 0.45000000 -0.00000522 32.00007000
v 0.00143457 1.00070500 -32.00000000
v 0.45000000 -0.00000522 -32.00000000
v -0.44727060 -0.00000525 32.00007000
v -0.44727060 -0.00000525 -32.00000000
v 0.00143457 1.00070500 -15.99998000
v 0.00143457 1.00070500 0.00003815
v 0.00143457 1.00070500 16.00006000
v 0.45000000 -0.00000522 16.00005000
v 0.45000000 -0.00000522 0.00003433
v 0.45000000 -0.00000522 -15.99998000
v -0.44727060 -0.00000525 -15.99998000
v -0.44727060 -0.00000525 0.00003815
v -0.44727060 -0.00000525 16.00006000
v 0.00143457 1.00070500 -15.99998000
v 0.00143457 1.00070500 -32.00000000
v 0.00143457 1.00070500 16.00006000
v 0.00143457 1.00070500 32.00007000
v 0.00143457 1.00070500 0.00003815
vt 0.36855 1.00000
vt 0.64392 1.00000
vt 0.36855 0.00000
vt 0.64392 0.00000
vt 0.00000 1.00000
vt 0.00000 0.00000
vt 0.36855 0.25000
vt 0.36855 0.50000
vt 0.36855 0.75000
vt 0.64392 0.75000
vt 0.64392 0.50000
vt 0.64392 0.25000
vt 0.00000 0.25000
vt 0.00000 0.50000
vt 0.00000 0.75000
vt 0.36855 0.25000
vt 0.36855 0.00000
vt 0.36855 0.75000
vt 0.36855 1.00000
vt 0.36855 0.50000
vn -0.91247150 0.40914020 0.00000000
vn 0.91251910 0.40903410 0.00000000
vn 0.91251910 0.40903420 0.00000000
vn 0.91251910 0.40903420 0.00000000
vn -0.91247150 0.40914020 0.00000000
vn -0.91247150 0.40914030 0.00000000
vn 0.91251910 0.40903420 0.00000000
vn -0.91247150 0.40914030 0.00000000
vn -0.91247150 0.40914020 0.00000000
vn 0.91251910 0.40903420 0.00000000
vn 0.91251910 0.40903420 0.00000000
vn 0.91251910 0.40903420 0.00000000
vn -0.91247150 0.40914040 0.00000000
vn -0.91247150 0.40914030 0.00000000
vn -0.91247150 0.40914030 0.00000000
vn -0.91247150 0.40914040 0.00000000
vn -0.91247150 0.40914040 0.00000000
vn 0.91251910 0.40903410 0.00000000
vn 0.91251910 0.40903410 0.00000000
vn 0.91251910 0.40903420 0.00000000
vc 1.00000000 1.00000000 1.00000000 1.00000000
vc 1.00000000 1.00000000 1.00000000 1.00000000
vc 1.00000000 1.00000000 1.00000000 1.00000000
vc 1.00000000 1.00000000 1.00000000 1.00000000
vc 1.00000000 1.00000000 1.00000000 1.00000000
vc 1.00000000 1.00000000 1.00000000 1.00000000
vc 1.00000000 1.00000000 1.00000000 1.00000000
vc 1.00000000 1.00000000 1.00000000 1.00000000
vc 1.00000000 1.00000000 1.00000000 1.00000000
vc 1.00000000 1.00000000 1.00000000 1.00000000
vc 1.00000000 1.00000000 1.00000000 1.00000000
vc 1.00000000 1.00000000 1.00000000 1.00000000
vc 1.00000000 1.00000000 1.00000000 1.00000000
vc 1.00000000 1.00000000 1.00000000 1.00000000
vc 1.00000000 1.00000000 1.00000000 1.00000000
vc 1.00000000 1.00000000 1.00000000 1.00000000
vc 1.00000000 1.00000000 1.00000000 1.00000000
vc 1.00000000 1.00000000 1.00000000 1.00000000
vc 1.00000000 1.00000000 1.00000000 1.00000000
vc 1.00000000 1.00000000 1.00000000 1.00000000
g 52. Barrier (blnk)_lod_0
f 3/3/3/3 7/7/7/7 12/12/12/12
f 13/13/13/13 16/16/16/16 17/17/17/17
f 5/5/5/5 1/1/1/1 9/9/9/9
f 15/15/15/15 9/9/9/9 8/8/8/8
f 14/14/14/14 8/8/8/8 16/16/16/16
f 18/18/18/18 19/19/19/19 2/2/2/2
f 20/20/20/20 18/18/18/18 10/10/10/10
f 7/7/7/7 20/20/20/20 11/11/11/11
f 3/3/3/3 12/12/12/12 4/4/4/4
f 13/13/13/13 17/17/17/17 6/6/6/6
f 5/5/5/5 9/9/9/9 15/15/15/15
f 15/15/15/15 8/8/8/8 14/14/14/14
f 14/14/14/14 16/16/16/16 13/13/13/13
f 18/18/18/18 2/2/2/2 10/10/10/10
f 20/20/20/20 10/10/10/10 11/11/11/11
f 7/7/7/7 11/11/11/11 12/12/12/12
